# Blender v2.80 (sub 75) OBJ File: 'translationGizmo.blend'
# www.blender.org
o Cube_Cube.001
v -0.464795 -0.464795 0.464795
v -0.464795 0.464795 0.464795
v -0.464795 -0.464795 -0.464795
v -0.464795 0.464795 -0.464795
v 0.464795 -0.464795 0.464795
v 0.464795 0.464795 0.464795
v 0.464795 -0.464795 -0.464795
v 0.464795 0.464795 -0.464795
v -0.464795 0.464795 0.154932
v -0.464795 0.464795 -0.154932
v 0.464795 -0.464795 0.154932
v 0.464795 -0.464795 -0.154932
v 0.464795 0.464795 -0.154932
v 0.464795 0.464795 0.154932
v -0.464795 0.154932 -0.464795
v -0.464795 -0.154932 -0.464795
v 0.464795 0.154932 -0.464795
v 0.464795 -0.154932 -0.464795
v 0.464795 0.154932 0.464795
v 0.464795 -0.154932 0.464795
v 0.464795 0.154932 -0.154932
v 0.464795 -0.154932 -0.154932
v 0.464795 0.154932 0.154932
v 0.464795 -0.154932 0.154932
v 0.154932 -0.464795 -0.464795
v -0.154932 -0.464795 -0.464795
v -0.154932 0.464795 -0.464795
v 0.154932 0.464795 -0.464795
v 0.154932 0.464795 0.464795
v -0.154932 0.464795 0.464795
v -0.154932 0.464795 -0.154932
v 0.154932 0.464795 -0.154932
v -0.154932 0.464795 0.154932
v 0.154932 0.464795 0.154932
v -0.154932 -0.154932 -0.464795
v 0.154932 -0.154932 -0.464795
v -0.154932 0.154932 -0.464795
v 0.154932 0.154932 -0.464795
v 2.527918 0.154932 -0.154932
v 2.527918 -0.154932 -0.154932
v 2.527918 0.154932 0.154932
v 2.527918 -0.154932 0.154932
v 2.553769 0.203979 -0.203979
v 2.553769 -0.203979 -0.203979
v 2.553769 0.203979 0.203979
v 2.553769 -0.203979 0.203979
v 2.809411 0.005923 -0.005923
v 2.809411 -0.005923 -0.005923
v 2.809411 0.005923 0.005923
v 2.809411 -0.005923 0.005923
v -0.154932 -0.154932 -2.574115
v 0.154932 -0.154932 -2.574115
v -0.154932 0.154932 -2.574115
v 0.154932 0.154932 -2.574115
v -0.218375 -0.218375 -2.594373
v 0.218375 -0.218375 -2.594373
v -0.218375 0.218375 -2.594373
v 0.218375 0.218375 -2.594373
v -0.024801 -0.024801 -2.797846
v 0.024801 -0.024801 -2.797846
v -0.024801 0.024801 -2.797846
v 0.024801 0.024801 -2.797846
v -0.154932 2.558538 -0.154932
v 0.154932 2.558538 -0.154932
v -0.154932 2.558538 0.154932
v 0.154932 2.558538 0.154932
v -0.204353 2.589059 -0.204353
v 0.204353 2.589059 -0.204353
v -0.204353 2.589059 0.204353
v 0.204353 2.589059 0.204353
v -0.018875 2.787445 -0.018875
v 0.018875 2.787445 -0.018875
v -0.018875 2.787445 0.018875
v 0.018875 2.787445 0.018875
vt 0.625000 0.416667
vt 0.541667 0.500000
vt 0.541667 0.416667
vt 0.625000 0.666667
vt 0.541667 0.750000
vt 0.541667 0.666667
vt 0.875000 0.666667
vt 0.791667 0.750000
vt 0.791667 0.666667
vt 0.875000 0.500000
vt 0.791667 0.583333
vt 0.791667 0.500000
vt 0.875000 0.583333
vt 0.625000 0.500000
vt 0.541667 0.583333
vt 0.625000 0.583333
vt 0.458333 0.583333
vt 0.375000 0.666667
vt 0.375000 0.583333
vt 0.458333 0.666667
vt 0.541667 0.666667
vt 0.458333 0.500000
vt 0.375000 0.500000
vt 0.375000 0.750000
vt 0.458333 0.750000
vt 0.458333 0.416667
vt 0.375000 0.416667
vt 0.625000 0.083333
vt 0.541667 0.250000
vt 0.458333 0.250000
vt 0.458333 0.333333
vt 0.541667 0.416667
vt 0.375000 0.333333
vt 0.375000 0.250000
vt 0.625000 0.916667
vt 0.291667 0.500000
vt 0.708333 0.583333
vt 0.708333 0.666667
vt 0.791667 0.666667
vt 0.708333 0.500000
vt 0.625000 0.750000
vt 0.708333 0.750000
vt 0.625000 0.250000
vt 0.541667 0.333333
vt 0.625000 0.333333
vt 0.541667 0.583333
vt 0.541667 0.666667
vt 0.541667 0.583333
vt 0.458333 0.583333
vt 0.458333 0.666667
vt 0.458333 0.583333
vt 0.458333 0.666667
vt 0.458333 0.666667
vt 0.541667 0.583333
vt 0.458333 0.583333
vt 0.541667 0.666667
vt 0.541667 0.333333
vt 0.541667 0.333333
vt 0.458333 0.416667
vt 0.458333 0.333333
vt 0.458333 0.333333
vt 0.458333 0.333333
vt 0.458333 0.416667
vt 0.541667 0.416667
vt 0.541667 0.333333
vt 0.458333 0.416667
vt 0.541667 0.416667
vt 0.791667 0.583333
vt 0.791667 0.666667
vt 0.791667 0.583333
vt 0.708333 0.583333
vt 0.708333 0.666667
vt 0.708333 0.583333
vt 0.708333 0.666667
vt 0.708333 0.666667
vt 0.791667 0.583333
vt 0.708333 0.583333
vt 0.791667 0.666667
vt 0.875000 0.750000
vt 0.375000 0.000000
vt 0.625000 0.000000
vt 0.625000 0.166667
vt 0.625000 0.833333
vt 0.625000 1.000000
vt 0.375000 1.000000
vt 0.125000 0.500000
vt 0.208333 0.500000
vt 0.125000 0.750000
vn 0.0000 0.0000 -1.0000
vn 1.0000 0.0000 0.0000
vn 0.0000 1.0000 0.0000
vn 0.0000 0.0000 1.0000
vn -1.0000 0.0000 0.0000
vn 0.0000 -1.0000 0.0000
vn -0.8846 0.4663 0.0000
vn 0.6124 -0.7905 0.0000
vn -0.8846 0.0000 0.4663
vn -0.8846 -0.4663 0.0000
vn -0.8846 0.0000 -0.4663
vn 0.6124 0.0000 -0.7905
vn 0.6124 0.7905 0.0000
vn 0.6124 0.0000 0.7905
vn 0.0000 0.3042 0.9526
vn -0.7245 0.0000 -0.6893
vn -0.3042 0.0000 0.9526
vn 0.0000 -0.3042 0.9526
vn 0.3042 0.0000 0.9526
vn 0.0000 -0.7245 -0.6893
vn 0.7245 0.0000 -0.6893
vn 0.0000 0.7245 -0.6893
vn -0.5254 -0.8508 0.0000
vn 0.7305 0.6829 0.0000
vn 0.0000 -0.8508 0.5254
vn 0.5254 -0.8508 0.0000
vn 0.0000 -0.8508 -0.5254
vn 0.0000 0.6829 -0.7305
vn -0.7305 0.6829 0.0000
vn 0.0000 0.6829 0.7305
s off
f 28/1/1 17/2/1 38/3/1
f 14/4/2 19/5/2 23/6/2
f 9/7/3 30/8/3 33/9/3
f 4/10/3 31/11/3 27/12/3
f 10/13/3 33/9/3 31/11/3
f 8/14/2 21/15/2 17/2/2
f 13/16/2 23/6/2 21/15/2
f 22/17/2 11/18/2 12/19/2
f 24/20/4 41/21/4 23/6/4
f 18/22/2 12/19/2 7/23/2
f 17/2/2 22/17/2 18/22/2
f 24/20/2 5/24/2 11/18/2
f 23/6/2 20/25/2 24/20/2
f 36/26/1 7/23/1 25/27/1
f 38/3/1 18/22/1 36/26/1
f 9/28/5 15/29/5 16/30/5
f 15/29/1 35/31/1 16/30/1
f 36/26/2 54/32/2 38/3/2
f 16/30/1 26/33/1 3/34/1
f 35/31/1 25/27/1 26/33/1
f 20/25/4 19/5/4 30/35/4
f 25/36/6 12/19/6 11/18/6
f 32/37/3 14/4/3 13/16/3
f 34/38/4 65/39/4 33/9/4
f 28/40/3 13/16/3 8/14/3
f 27/12/3 32/37/3 28/40/3
f 34/38/3 6/41/3 14/4/3
f 33/9/3 29/42/3 34/38/3
f 4/43/1 37/44/1 15/29/1
f 27/45/1 38/3/1 37/44/1
f 39/46/7 45/47/7 43/48/7
f 21/15/1 40/49/1 22/17/1
f 22/17/6 42/50/6 24/20/6
f 23/6/3 39/46/3 21/15/3
f 44/51/8 50/52/8 46/53/8
f 42/50/9 45/47/9 41/21/9
f 42/50/10 44/51/10 46/53/10
f 39/46/11 44/51/11 40/49/11
f 47/54/2 50/52/2 48/55/2
f 43/48/12 48/55/12 44/51/12
f 45/47/13 47/54/13 43/48/13
f 46/53/14 49/56/14 45/47/14
f 54/32/15 57/57/15 53/58/15
f 38/3/3 53/58/3 37/44/3
f 35/31/6 52/59/6 36/26/6
f 37/44/5 51/60/5 35/31/5
f 57/57/16 59/61/16 55/62/16
f 53/58/17 55/62/17 51/60/17
f 51/60/18 56/63/18 52/59/18
f 52/59/19 58/64/19 54/32/19
f 61/65/1 60/66/1 59/61/1
f 55/62/20 60/66/20 56/63/20
f 56/63/21 62/67/21 58/64/21
f 58/64/22 61/65/22 57/57/22
f 63/68/23 69/69/23 67/70/23
f 31/11/1 64/71/1 32/37/1
f 32/37/2 66/72/2 34/38/2
f 33/9/5 63/68/5 31/11/5
f 68/73/24 74/74/24 70/75/24
f 65/39/25 70/75/25 69/69/25
f 66/72/26 68/73/26 70/75/26
f 64/71/27 67/70/27 68/73/27
f 71/76/3 74/74/3 72/77/3
f 67/70/28 72/77/28 68/73/28
f 69/69/29 71/76/29 67/70/29
f 70/75/30 73/78/30 69/69/30
f 28/1/1 8/14/1 17/2/1
f 14/4/2 6/41/2 19/5/2
f 9/7/3 2/79/3 30/8/3
f 4/10/3 10/13/3 31/11/3
f 10/13/3 9/7/3 33/9/3
f 8/14/2 13/16/2 21/15/2
f 13/16/2 14/4/2 23/6/2
f 22/17/2 24/20/2 11/18/2
f 24/20/4 42/50/4 41/21/4
f 18/22/2 22/17/2 12/19/2
f 17/2/2 21/15/2 22/17/2
f 24/20/2 20/25/2 5/24/2
f 23/6/2 19/5/2 20/25/2
f 36/26/1 18/22/1 7/23/1
f 38/3/1 17/2/1 18/22/1
f 3/34/5 1/80/5 16/30/5
f 1/80/5 2/81/5 9/28/5
f 9/28/5 10/82/5 15/29/5
f 10/82/5 4/43/5 15/29/5
f 1/80/5 9/28/5 16/30/5
f 15/29/1 37/44/1 35/31/1
f 36/26/2 52/59/2 54/32/2
f 16/30/1 35/31/1 26/33/1
f 35/31/1 36/26/1 25/27/1
f 6/41/4 29/83/4 19/5/4
f 29/83/4 30/35/4 19/5/4
f 30/35/4 2/84/4 1/85/4
f 1/85/4 5/24/4 20/25/4
f 1/85/4 20/25/4 30/35/4
f 3/86/6 26/87/6 1/88/6
f 26/87/6 25/36/6 11/18/6
f 1/88/6 26/87/6 11/18/6
f 25/36/6 7/23/6 12/19/6
f 11/18/6 5/24/6 1/88/6
f 32/37/3 34/38/3 14/4/3
f 34/38/4 66/72/4 65/39/4
f 28/40/3 32/37/3 13/16/3
f 27/12/3 31/11/3 32/37/3
f 34/38/3 29/42/3 6/41/3
f 33/9/3 30/8/3 29/42/3
f 4/43/1 27/45/1 37/44/1
f 27/45/1 28/1/1 38/3/1
f 39/46/7 41/21/7 45/47/7
f 21/15/1 39/46/1 40/49/1
f 22/17/6 40/49/6 42/50/6
f 23/6/3 41/21/3 39/46/3
f 44/51/8 48/55/8 50/52/8
f 42/50/9 46/53/9 45/47/9
f 42/50/10 40/49/10 44/51/10
f 39/46/11 43/48/11 44/51/11
f 47/54/2 49/56/2 50/52/2
f 43/48/12 47/54/12 48/55/12
f 45/47/13 49/56/13 47/54/13
f 46/53/14 50/52/14 49/56/14
f 54/32/15 58/64/15 57/57/15
f 38/3/3 54/32/3 53/58/3
f 35/31/6 51/60/6 52/59/6
f 37/44/5 53/58/5 51/60/5
f 57/57/16 61/65/16 59/61/16
f 53/58/17 57/57/17 55/62/17
f 51/60/18 55/62/18 56/63/18
f 52/59/19 56/63/19 58/64/19
f 61/65/1 62/67/1 60/66/1
f 55/62/20 59/61/20 60/66/20
f 56/63/21 60/66/21 62/67/21
f 58/64/22 62/67/22 61/65/22
f 63/68/23 65/39/23 69/69/23
f 31/11/1 63/68/1 64/71/1
f 32/37/2 64/71/2 66/72/2
f 33/9/5 65/39/5 63/68/5
f 68/73/24 72/77/24 74/74/24
f 65/39/25 66/72/25 70/75/25
f 66/72/26 64/71/26 68/73/26
f 64/71/27 63/68/27 67/70/27
f 71/76/3 73/78/3 74/74/3
f 67/70/28 71/76/28 72/77/28
f 69/69/29 73/78/29 71/76/29
f 70/75/30 74/74/30 73/78/30
